<svg xmlns="http://www.w3.org/2000/svg" viewBox="0 0 525.153 525.153"><path d="M262.58 525.15c124.3 0 225.07-100.74 225.07-225.07-124.3 0-225.07 100.8-225.07 225.07zM102.54 231.3c0 34.5 28 62.52 62.5 62.52 13.23 0 25.24-4.02 35.5-10.96l-.5 4.73c0 34.47 28 62.5 62.52 62.5s62.5-28.03 62.5-62.5l-.47-4.74c10 6.94 22.24 10.96 35.48 10.96 34.5 0 62.52-28.03 62.52-62.5 0-25.04-14.73-46.25-35.74-56.3 21-9.97 35.74-31.26 35.74-56.2 0-34.55-28.03-62.52-62.52-62.52-13.24 0-25.23 4.03-35.5 10.96l.5-4.72c0-34.5-27.97-62.54-62.5-62.54s-62.52 28.03-62.52 62.52l.5 4.72c-10.02-6.93-22.27-10.96-35.5-10.96-34.54 0-62.52 27.96-62.52 62.5 0 24.98 14.72 46.25 35.73 56.23-21 10.07-35.73 31.3-35.73 56.3zm160.04-118.8c34.53 0 62.5 28.04 62.5 62.53 0 34.55-28 62.5-62.5 62.5s-62.52-27.95-62.52-62.5c0-34.5 28-62.52 62.52-62.52zM37.5 300.1c0 124.33 100.77 225.07 225.08 225.07 0-124.28-100.77-225.07-225.07-225.07z" fill="#81c784"/></svg>