<?xml version="1.0" encoding="UTF-8" standalone="no"?>
<svg
   xmlns:dc="http://purl.org/dc/elements/1.1/"
   xmlns:cc="http://creativecommons.org/ns#"
   xmlns:rdf="http://www.w3.org/1999/02/22-rdf-syntax-ns#"
   xmlns:svg="http://www.w3.org/2000/svg"
   xmlns="http://www.w3.org/2000/svg"
   xmlns:sodipodi="http://sodipodi.sourceforge.net/DTD/sodipodi-0.dtd"
   xmlns:inkscape="http://www.inkscape.org/namespaces/inkscape"
   enable-background="new 0 0 64 64"
   height="64px"
   id="Layer_1"
   version="1.1"
   viewBox="0 0 64 64"
   width="64px"
   xml:space="preserve"
   inkscape:version="0.91 r13725"
   sodipodi:docname="ikona.svg"><metadata
     id="metadata37"><rdf:RDF><cc:Work
         rdf:about=""><dc:format>image/svg+xml</dc:format><dc:type
           rdf:resource="http://purl.org/dc/dcmitype/StillImage" /><dc:title></dc:title></cc:Work></rdf:RDF></metadata><defs
     id="defs35" /><sodipodi:namedview
     pagecolor="#ffffff"
     bordercolor="#666666"
     borderopacity="1"
     objecttolerance="10"
     gridtolerance="10"
     guidetolerance="10"
     inkscape:pageopacity="0"
     inkscape:pageshadow="2"
     inkscape:window-width="1600"
     inkscape:window-height="1137"
     id="namedview33"
     showgrid="false"
     inkscape:zoom="10.429825"
     inkscape:cx="25.968298"
     inkscape:cy="37.644312"
     inkscape:window-x="-8"
     inkscape:window-y="-8"
     inkscape:window-maximized="1"
     inkscape:current-layer="Layer_1" /><circle
     cx="32"
     cy="32"
     fill="#4F5D73"
     r="32"
     id="circle3"
     style="fill:#607d8b;fill-opacity:1" /><line
     stroke-miterlimit="10"
     x1="32"
     x2="32"
     y1="24"
     y2="49"
     id="line5"
     style="stroke:#4caf50;stroke-opacity:1"
     stroke-linecap="round"
     stroke-width="4"
     stroke="#76C2AF"
     fill="none" /><path
     d="m 51.266357,36.296816 c -0.761575,-0.399149 -1.680197,-0.297708 -2.34281,0.25691 -0.04948,0.0419 -4.959914,4.143647 -10.895462,7.492305 -2.984984,1.684804 -4.874936,3.761037 -6.079687,5.727009 -1.20475,-1.967074 -3.095778,-4.043308 -6.080762,-5.727009 -5.923715,-3.343145 -10.725507,-7.437174 -10.773912,-7.477971 -0.659385,-0.565644 -1.583386,-0.674803 -2.350339,-0.276757 -0.766952,0.396943 -1.230566,1.222806 -1.177858,2.102697 0.414133,6.982893 5.197637,20.188976 20.33339,20.188976 0.01614,0 0.0312,-0.0044 0.04733,-0.0044 0.01614,0 0.03119,0.0044 0.04733,0.0044 15.21858,0 20.023598,-13.206083 20.437731,-20.188976 0.05378,-0.875481 -0.404452,-1.698036 -1.16495,-2.097184 z"
     id="path7"
     inkscape:connector-curvature="0"
     style="opacity:0.2;fill:#231f20" /><path
     d="m 31.995728,54.172495 c 0,0 0,-6.409531 7.070379,-10.399914 6.193708,-3.495306 11.220314,-7.718342 11.220314,-7.718342 0,0 -1.07567,18.118256 -18.290693,18.118256 z"
     stroke-miterlimit="10"
     id="path9"
     style="fill:#4caf50;fill-opacity:1;stroke:#4caf50;stroke-width:4.35624695;stroke-linecap:round;stroke-linejoin:round;stroke-miterlimit:10;stroke-opacity:1"
     inkscape:connector-curvature="0" /><path
     d="m 31.899993,54.172495 c 0,0 0,-6.409531 -7.070379,-10.399914 -6.192633,-3.495306 -11.115974,-7.718342 -11.115974,-7.718342 0,0 1.07567,18.118256 18.186353,18.118256 z"
     stroke-miterlimit="10"
     id="path11"
     style="fill:#4caf50;fill-opacity:1;stroke:#4caf50;stroke-width:4.35624695;stroke-linecap:round;stroke-linejoin:round;stroke-miterlimit:10;stroke-opacity:1"
     inkscape:connector-curvature="0" /><ellipse
     cx="25.424726"
     cy="24.063919"
     id="circle13"
     rx="8.7670307"
     ry="8.5113544"
     style="opacity:0.2;fill:#231f20" /><ellipse
     cx="38.575272"
     cy="24.063919"
     id="circle15"
     rx="8.7670307"
     ry="8.5113544"
     style="opacity:0.2;fill:#231f20" /><ellipse
     cx="32"
     cy="19.808243"
     id="circle17"
     rx="8.7670307"
     ry="8.5113544"
     style="opacity:0.2;fill:#231f20" /><ellipse
     cx="32"
     cy="30.447435"
     id="circle19"
     rx="8.7670307"
     ry="8.5113544"
     style="opacity:0.2;fill:#231f20" /><ellipse
     cx="25.424726"
     cy="21.936081"
     id="circle21"
     style="fill:#d32f2f;fill-opacity:1"
     rx="8.7670307"
     ry="8.5113544" /><ellipse
     cx="38.575272"
     cy="21.936081"
     id="circle23"
     style="fill:#d32f2f;fill-opacity:1"
     rx="8.7670307"
     ry="8.5113544" /><ellipse
     cx="32"
     cy="15.552566"
     id="circle25"
     style="fill:#d32f2f;fill-opacity:1"
     rx="8.7670307"
     ry="8.5113544" /><ellipse
     cx="32"
     cy="28.319595"
     id="circle27"
     style="fill:#d32f2f;fill-opacity:1"
     rx="8.7670307"
     ry="8.5113544" /><ellipse
     cx="32"
     cy="24.063919"
     id="circle29"
     rx="5.4793944"
     ry="5.3195963"
     style="opacity:0.2;fill:#231f20" /><ellipse
     cx="32"
     cy="21.936081"
     id="circle31"
     style="fill:#ffc107;fill-opacity:1"
     rx="5.4793944"
     ry="5.3195963" /></svg>